<?xml version="1.0" encoding="iso-8859-1"?>
<!-- Generator: Adobe Illustrator 19.0.0, SVG Export Plug-In . SVG Version: 6.00 Build 0)  -->
<svg version="1.1" id="Capa_1" xmlns="http://www.w3.org/2000/svg" xmlns:xlink="http://www.w3.org/1999/xlink" x="0px" y="0px"
	 viewBox="0 0 71.906 71.906" style="enable-background:new 0 0 71.906 71.906;" xml:space="preserve">
<g>
	<path d="M29.042,36.953c-0.256,0-0.512-0.098-0.707-0.293c-0.391-0.391-0.391-1.023,0-1.414l9.896-9.896
		c0.391-0.391,1.023-0.391,1.414,0s0.391,1.023,0,1.414l-9.896,9.896C29.554,36.855,29.298,36.953,29.042,36.953z"/>
	<path d="M39.032,46.943c-0.256,0-0.512-0.098-0.707-0.293l-9.99-9.99c-0.391-0.391-0.391-1.023,0-1.414s1.023-0.391,1.414,0
		l9.99,9.99c0.391,0.391,0.391,1.023,0,1.414C39.544,46.846,39.288,46.943,39.032,46.943z"/>
	<path d="M35.953,71.906C16.128,71.906,0,55.777,0,35.953S16.128,0,35.953,0s35.953,16.129,35.953,35.953
		S55.778,71.906,35.953,71.906z M35.953,2C17.231,2,2,17.231,2,35.953s15.231,33.953,33.953,33.953s33.953-15.231,33.953-33.953
		S54.675,2,35.953,2z"/>
</g>
<g>
</g>
<g>
</g>
<g>
</g>
<g>
</g>
<g>
</g>
<g>
</g>
<g>
</g>
<g>
</g>
<g>
</g>
<g>
</g>
<g>
</g>
<g>
</g>
<g>
</g>
<g>
</g>
<g>
</g>
</svg>
